<svg xmlns="http://www.w3.org/2000/svg" viewBox="0 0 400 300" width="400" height="300">
  <defs>
    <linearGradient id="portfolio-gradient" x1="0%" y1="0%" x2="100%" y2="100%">
      <stop offset="0%" style="stop-color:#ec4899;stop-opacity:1" />
      <stop offset="100%" style="stop-color:#8b5cf6;stop-opacity:1" />
    </linearGradient>
  </defs>
  
  <!-- Background -->
  <rect width="400" height="300" fill="url(#portfolio-gradient)"/>
  
  <!-- Camera Icon -->
  <rect x="150" y="80" width="100" height="70" rx="15" fill="#ffffff" opacity="0.9"/>
  <rect x="160" y="90" width="80" height="50" rx="10" fill="#374151"/>
  <circle cx="200" cy="115" r="15" fill="#ffffff"/>
  <circle cx="200" cy="115" r="10" fill="#374151"/>
  <rect x="180" y="75" width="40" height="10" rx="5" fill="#ffffff" opacity="0.9"/>
  
  <!-- Photo frames -->
  <rect x="80" y="170" width="60" height="40" fill="#ffffff" opacity="0.8"/>
  <rect x="90" y="180" width="40" height="20" fill="#e5e7eb"/>
  
  <rect x="170" y="170" width="60" height="40" fill="#ffffff" opacity="0.8"/>
  <rect x="180" y="180" width="40" height="20" fill="#e5e7eb"/>
  
  <rect x="260" y="170" width="60" height="40" fill="#ffffff" opacity="0.8"/>
  <rect x="270" y="180" width="40" height="20" fill="#e5e7eb"/>
  
  <!-- Decorative elements -->
  <circle cx="80" cy="50" r="20" fill="#ffffff" opacity="0.2"/>
  <circle cx="320" cy="80" r="15" fill="#ffffff" opacity="0.2"/>
  <circle cx="340" cy="200" r="25" fill="#ffffff" opacity="0.2"/>
  
  <!-- Project title -->
  <text x="200" y="35" text-anchor="middle" font-family="Arial, sans-serif" font-size="20" font-weight="bold" fill="#ffffff">
    PORTFOLIO PHOTOGRAPHE
  </text>
  
  <!-- Subtitle -->
  <text x="200" y="280" text-anchor="middle" font-family="Arial, sans-serif" font-size="14" fill="#ffffff" opacity="0.8">
    Portfolio Créatif
  </text>
</svg>